<svg width="24" height="21" viewBox="0 0 24 21" fill="none" xmlns="http://www.w3.org/2000/svg">
<path d="M9.50112 1.68521C9.49268 1.04537 10.0505 0.467871 10.6903 0.452871C11.5627 0.448652 12.4355 0.448652 13.3078 0.452871C13.9486 0.466465 14.5055 1.04443 14.4989 1.68428C14.5017 3.60615 14.4994 5.52803 14.4999 7.4499C15.4172 7.45178 16.3346 7.4485 17.2519 7.45131C17.5955 7.4424 17.9128 7.7049 17.9808 8.03959C18.0403 8.28522 17.9578 8.55147 17.7811 8.72959C16.0425 10.5535 14.3016 12.3751 12.5621 14.198C12.2635 14.5524 11.6658 14.5187 11.3925 14.1502C9.6994 12.3751 8.00581 10.6008 6.31128 8.82662C6.1505 8.67428 6.00706 8.48022 6.0019 8.24912C5.96909 7.8535 6.29675 7.46537 6.698 7.45412C7.63175 7.44522 8.56596 7.45365 9.50018 7.4499C9.50065 5.5285 9.49878 3.60662 9.50112 1.68521Z" fill="#D52A33"/>
<path d="M0.404063 17.0841C0.736406 16.6791 1.25672 16.4405 1.78078 16.4504C8.59359 16.4504 15.4064 16.4499 22.2197 16.4508C22.7325 16.441 23.2439 16.6683 23.5758 17.0607C23.8209 17.3401 23.9587 17.6996 24 18.0666V18.8096C23.9648 19.2366 23.7811 19.6519 23.4713 19.951C23.1427 20.2763 22.6809 20.4568 22.2188 20.4502C15.5316 20.4507 8.84391 20.4502 2.15672 20.4502C1.80047 20.453 1.42922 20.468 1.09547 20.3213C0.485625 20.0827 0.0529687 19.4794 0 18.8288V18.0844C0.0332812 17.7207 0.167344 17.3644 0.404063 17.0841Z" fill="#D52A33"/>
</svg>
