<svg width="38" height="39" viewBox="0 0 38 39" fill="none" xmlns="http://www.w3.org/2000/svg">
<path d="M18.5139 0.450867H19.4809C22.3013 0.531765 25.1067 1.22571 27.6153 2.52231C31.5526 4.52102 34.7448 7.93805 36.4763 12C37.4152 14.1761 37.9132 16.5318 38 18.8979V19.9971C37.8961 23.052 37.0767 26.0868 35.5619 28.7453C34.2304 31.1136 32.3839 33.191 30.1892 34.7926C28.025 36.3794 25.5209 37.5038 22.892 38.0486C21.7721 38.2898 20.6284 38.4041 19.4846 38.4509H18.5176C15.7544 38.367 13.0061 37.7005 10.5346 36.4551C6.5691 34.4794 3.33391 31.0795 1.57344 27.0115C0.598945 24.808 0.0883203 22.4115 0 20.0068V18.9039C0.0972266 16.0331 0.821602 13.1779 2.17387 10.6389C3.93508 7.27305 6.73609 4.46016 10.0908 2.67669C12.6729 1.28583 15.5852 0.53696 18.5139 0.450867ZM17.48 10.1401C16.5345 10.981 16.101 12.2672 16.0587 13.5059C16.0468 14.4114 16.0572 15.3176 16.0535 16.2231C15.3277 16.2268 14.6025 16.2231 13.8767 16.2253C13.8752 17.5227 13.8759 18.8207 13.8767 20.1181C14.6018 20.1196 15.3277 20.1181 16.0535 20.1196C16.0565 23.7838 16.0483 27.4494 16.0572 31.1136L16.0802 31.1351C17.598 31.1411 19.1158 31.1366 20.6336 31.1374C20.635 27.4643 20.6336 23.7919 20.6343 20.1196C21.6645 20.1174 22.6954 20.1211 23.7255 20.1174C23.8576 18.82 23.9927 17.5234 24.1248 16.2253C22.9625 16.2238 21.7995 16.2246 20.6373 16.2253C20.6328 15.4957 20.6373 14.7662 20.6343 14.0366C20.6343 13.8021 20.6484 13.5564 20.7612 13.3449C20.9126 13.0399 21.2622 12.8758 21.5925 12.881C22.4185 12.8781 23.2438 12.8818 24.0699 12.8795C24.0714 11.6193 24.0699 10.3598 24.0706 9.10032C22.9254 9.09067 21.7795 9.08844 20.6343 9.08548C19.5106 9.08473 18.3328 9.37419 17.48 10.1401Z" fill="#D52A33"/>
</svg>
