<svg width="39" height="39" viewBox="0 0 39 39" fill="none" xmlns="http://www.w3.org/2000/svg">
<path d="M18.918 0.450867H20.0027C22.8226 0.531023 25.6273 1.19083 28.1531 2.41915C32.1575 4.35255 35.4428 7.66122 37.277 11.6341C38.3404 13.9097 38.9063 16.3938 39 18.8898V20.0112C38.8895 23.0601 38.0562 26.0927 36.5031 28.7475C35.2264 30.9644 33.4874 32.926 31.4232 34.4802C29.1555 36.1939 26.4956 37.4177 23.6887 38.0093C22.4806 38.2779 21.2428 38.3997 20.0065 38.4509H18.9957C16.0852 38.364 13.1907 37.6641 10.6024 36.3586C6.55078 34.3377 3.27158 30.8932 1.5143 26.8015C0.581953 24.6573 0.0883594 22.3424 0 20.0172V18.8868C0.0662695 17.2956 0.303164 15.7088 0.760957 14.1784C2.04979 9.78016 5.04715 5.88887 9.00885 3.43966C11.9491 1.58122 15.421 0.56739 18.918 0.450867ZM10.8583 8.59786C10.1019 8.72923 9.38971 9.1879 9.05379 9.87294C8.55105 10.8571 8.81994 12.1789 9.74543 12.8365C10.4371 13.3441 11.3679 13.4473 12.1982 13.2707C12.8837 13.1289 13.5182 12.7103 13.8503 12.101C14.3957 11.1399 14.1604 9.81505 13.2821 9.11591C12.6163 8.57856 11.6886 8.45239 10.8583 8.59786ZM23.7641 15.1788C22.6787 15.5069 21.805 16.2966 21.2101 17.2213C21.2116 16.5652 21.2093 15.9091 21.2116 15.2531C19.6295 15.2456 18.0466 15.2531 16.4638 15.2493C16.5171 19.8902 16.4706 24.5319 16.4615 29.1728C18.0444 29.1743 19.6272 29.1728 21.2101 29.1735C21.2116 26.5751 21.2093 23.9775 21.2116 21.3798C21.2123 20.9256 21.2451 20.4521 21.4736 20.0461C21.8225 19.3343 22.5004 18.7547 23.3116 18.6218C24.081 18.4882 24.9684 18.6508 25.494 19.2549C26.0721 19.9207 26.1955 20.835 26.2077 21.6774C26.2107 24.1756 26.2085 26.6746 26.2092 29.1728C27.7921 29.1743 29.3749 29.1735 30.9578 29.1735C30.9578 26.5024 30.9593 23.832 30.957 21.1609C30.9509 19.9162 30.7552 18.6411 30.1603 17.5256C29.6438 16.537 28.7663 15.7266 27.7037 15.3191C26.4591 14.8463 25.0407 14.7929 23.7641 15.1788ZM9.08502 15.2501C9.08273 19.8902 9.08654 24.5311 9.0835 29.172C10.6679 29.172 12.253 29.1802 13.8374 29.1676C13.8282 24.5289 13.8359 19.8895 13.8336 15.2508C12.2507 15.2493 10.6679 15.2508 9.08502 15.2501Z" fill="#D52A33"/>
</svg>
