<svg width="39" height="39" viewBox="0 0 39 39" fill="none" xmlns="http://www.w3.org/2000/svg">
<path d="M18.9957 0.450867H20.0043C22.8935 0.533992 25.7682 1.22645 28.339 2.52009C32.3441 4.50173 35.6004 7.87571 37.3882 11.8902C38.3815 14.0952 38.9078 16.4873 39 18.8913V20.075C38.8758 23.1032 38.041 26.109 36.4978 28.7453C35.1305 31.1143 33.2346 33.1925 30.9806 34.7948C28.761 36.3802 26.1932 37.5023 23.4975 38.0479C22.3488 38.2891 21.1758 38.4034 20.0035 38.4509H18.9973C16.0883 38.364 13.196 37.6619 10.61 36.3557C6.98953 34.5425 3.97389 31.6042 2.129 28.0677C0.798281 25.5628 0.0868359 22.7603 0 19.9437V18.8905C0.0799805 16.8309 0.470742 14.7795 1.21418 12.8476C2.86863 8.48876 6.2301 4.77411 10.4584 2.62548C13.0795 1.26505 16.0304 0.538445 18.9957 0.450867ZM22.6962 10.9046C21.3426 11.2022 20.1619 12.1522 19.6074 13.3924C19.2083 14.2541 19.1214 15.2397 19.3317 16.1615C18.1297 16.0932 16.9345 15.8757 15.798 15.4861C13.5731 14.7395 11.5758 13.3716 10.092 11.5933C9.44988 12.6242 9.31277 13.9275 9.67611 15.0757C9.97014 16.0331 10.626 16.8658 11.4669 17.4314C10.7585 17.4024 10.0623 17.2132 9.43922 16.8844C9.4377 17.6778 9.64488 18.4734 10.0631 19.1562C10.6938 20.2101 11.796 20.9753 13.0208 21.2217C12.3718 21.4117 11.6787 21.4088 11.0145 21.3004C11.2529 22.0136 11.6787 22.6682 12.2477 23.1752C13.0391 23.8981 14.1055 24.3025 15.1856 24.3426C13.3506 25.7736 10.9131 26.4148 8.58457 26.1506C10.7433 27.5229 13.3522 28.199 15.9245 28.0988C18.234 28.0343 20.5405 27.3841 22.4707 26.1343C26.178 23.7637 28.3908 19.4041 28.2004 15.1024C29.0733 14.4856 29.832 13.7182 30.4345 12.8461C29.6202 13.1905 28.7564 13.4213 27.8751 13.5282C28.7793 12.9731 29.4945 12.1262 29.8266 11.1324C28.9331 11.6022 27.9855 11.9882 26.9839 12.1715C25.9137 11.0523 24.2249 10.5402 22.6962 10.9046Z" fill="#D52A33"/>
</svg>
